<svg xmlns="http://www.w3.org/2000/svg" viewBox="0 0 48 48"><g data-name="Card Payment"><path d="M17 36h-1v2h1a1 1 0 0 0 0-2ZM23.19 40h1.62L24 37.85 23.19 40zM28 6h3v6h-3z"/><path d="M26 23a1 1 0 0 1 2 0v6h3V19a1 1 0 0 1 2 0v10h3V4a3 3 0 0 0-3-3H22v28h4Zm0-18a1 1 0 0 1 1-1h5a1 1 0 0 1 1 1v8a1 1 0 0 1-1 1h-5a1 1 0 0 1-1-1ZM18 1h2v28h-2zM16 1h-1a3 3 0 0 0-3 3v25h4zm21 30H11a2 2 0 0 0-2 2v12a2 2 0 0 0 2 2h26a2 2 0 0 0 2-2V33a2 2 0 0 0-2-2zm-20 9h-1v3a1 1 0 0 1-2 0v-8a1 1 0 0 1 1-1h2a3 3 0 0 1 0 6zm9.06 3.35-.5-1.35h-3.12l-.5 1.35a1 1 0 0 1-1.88-.7l3-8a1 1 0 0 1 1.88 0l3 8a1 1 0 0 1-1.88.7zm7.83-7.9L32 39.24V43a1 1 0 0 1-2 0v-3.76l-1.89-3.79a1 1 0 0 1 1.78-.9L31 36.76l1.11-2.21a1 1 0 0 1 1.78.9z"/></g></svg>