<svg xmlns="http://www.w3.org/2000/svg" viewBox="0 0 48 48"><circle cx="24" cy="24" r="9" fill="#ccd3eb"/><ellipse cx="24" cy="22.5" fill="#f5f7ff" rx="8.88" ry="7.5"/><circle cx="13" cy="24" r="9" fill="#0074ff"/><circle cx="3" cy="11" r="2" fill="#0074ff"/><circle cx="13" cy="3" r="2" fill="#0074ff"/><circle cx="24" cy="7" r="2" fill="#0074ff"/><circle cx="45" cy="11" r="2" fill="#0074ff"/><circle cx="35" cy="3" r="2" fill="#0074ff"/><circle cx="3" cy="37" r="2" fill="#0074ff"/><circle cx="13" cy="45" r="2" fill="#0074ff"/><circle cx="24" cy="41" r="2" fill="#0074ff"/><circle cx="45" cy="37" r="2" fill="#0074ff"/><circle cx="35" cy="45" r="2" fill="#0074ff"/><circle cx="35" cy="24" r="9" fill="#0074ff"/><path fill="#f5f7ff" d="M35 21a1 1 0 0 1 1 1 1 1 0 0 0 1 1c1.66 0 1.21-3-1-3.82a1 1 0 1 0-2 0A3 3 0 0 0 35 25a1 1 0 1 1-1 1 1 1 0 0 0-1-1c-1.66 0-1.21 3 1 3.82a1 1 0 1 0 2 0A3 3 0 0 0 35 23a1 1 0 0 1 0-2zm-25 6a1 1 0 0 0 0 2 1 1 0 0 0 2 0h1a1 1 0 1 0 2-.18A3 3 0 0 0 16.22 24 3 3 0 0 0 15 19.18a1 1 0 1 0-2-.18h-1a1 1 0 0 0-2 0 1 1 0 0 0 0 2zm4 0h-2v-2h2a1 1 0 0 1 0 2zm0-6a1 1 0 0 1 0 2h-2v-2z"/><path fill="#033c59" d="M42.18 36H39v-2.85a10.07 10.07 0 0 0 4.31-3.59 1 1 0 0 0-1.66-1.12A8 8 0 1 1 43 24.88a1 1 0 0 0 2 .24 10 10 0 0 0-6-10.28V12h3.18a3 3 0 1 0 0-2H38a1 1 0 0 0-1 1v3.2a10 10 0 0 0-5 .26v-3.84l3.45-1.73c.68-.33.55-.73.55-3.07a3 3 0 1 0-2 0v1.56l-3.45 1.73c-.73.36-.55.51-.55 6.24-.17.1-.34.2-.5.31a9.81 9.81 0 0 0-4.5-1.61V9.82a3 3 0 1 0-2 0v4.23a9.81 9.81 0 0 0-4.5 1.61c-.16-.11-.33-.21-.5-.31 0-5.67.19-5.88-.55-6.24L14 7.38V5.82a3 3 0 1 0-2 0c0 2.25-.16 2.72.55 3.07L16 10.62v3.84a9.64 9.64 0 0 0-5-.23V11a1 1 0 0 0-1-1H5.82a3 3 0 1 0 0 2H9v2.85a10.67 10.67 0 0 0-1.56.84 1 1 0 0 0 1.12 1.66 8 8 0 1 1-2.73 3.1 1 1 0 0 0-.44-1.34c-2.55-1.29-5 10.27 3.61 14V36H5.82a3 3 0 1 0 0 2H10a1 1 0 0 0 1-1v-3.2a10 10 0 0 0 5-.26v3.84l-3.45 1.73c-.68.33-.55.73-.55 3.07a3 3 0 1 0 2 0v-1.56l3.45-1.73c.73-.36.55-.51.55-6.24.17-.1.34-.2.5-.31A9.81 9.81 0 0 0 23 34v4.23a3 3 0 1 0 2 0V34a9.81 9.81 0 0 0 4.5-1.61c.16.11.33.21.5.31 0 5.67-.19 5.88.55 6.24L34 40.62v1.56a3 3 0 1 0 2 0c0-2.25.16-2.72-.55-3.07L32 37.38v-3.84a9.64 9.64 0 0 0 5 .24V37a1 1 0 0 0 1 1h4.18a3 3 0 1 0 0-2ZM45 10a1 1 0 0 1 0 2 1 1 0 0 1 0-2ZM35 2a1 1 0 0 1 0 2 1 1 0 0 1 0-2ZM13 2a1 1 0 0 1 0 2 1 1 0 0 1 0-2ZM3 12a1 1 0 0 1 0-2 1 1 0 0 1 0 2Zm0 26a1 1 0 0 1 0-2 1 1 0 0 1 0 2Zm10 8a1 1 0 0 1 0-2 1 1 0 0 1 0 2Zm22 0a1 1 0 0 1 0-2 1 1 0 0 1 0 2ZM24 6a1 1 0 0 1 0 2 1 1 0 0 1 0-2Zm-3.86 11a7.86 7.86 0 0 1 7.72 0 10 10 0 0 0 0 14 7.86 7.86 0 0 1-7.72 0 10 10 0 0 0 0-14ZM24 42a1 1 0 0 1 0-2 1 1 0 0 1 0 2Zm21-4a1 1 0 0 1 0-2 1 1 0 0 1 0 2Z"/></svg>