<svg width="109" height="44" viewBox="0 0 109 44" fill="none" xmlns="http://www.w3.org/2000/svg">
<path fill-rule="evenodd" clip-rule="evenodd" d="M16.9586 21.9028C17.011 12.0781 24.9893 4.12942 34.8252 4.12502C33.4635 3.14796 31.9864 2.32388 30.419 1.67463C25.9447 -0.178685 20.9839 -0.503835 16.306 0.749613C11.628 2.00306 7.4944 4.76506 4.5462 8.60723C1.59799 12.4494 -2.81709e-05 17.157 -2.85943e-05 22C-2.90177e-05 26.8429 1.59799 31.5506 4.5462 35.3927C7.4944 39.2349 11.628 41.9969 16.306 43.2504C20.9839 44.5038 25.9447 44.1787 30.419 42.3253C31.9864 41.6761 33.4634 40.852 34.8251 39.875C28.9961 39.8724 23.8194 37.0796 20.5583 32.7598C13.4943 33.021 7.3333 32.5504 7.3333 29.3333C7.3333 26.6796 11.5255 24.1934 16.9586 21.9028Z" fill="white"/>
<path d="M55.4096 37.4945C60.8132 37.4945 64.8748 33.3269 64.8748 28.2764C64.8748 22.8374 61.1311 19.023 55.6921 19.023C53.9262 19.023 52.2662 19.6588 50.9595 20.6477V11.465H45.9443V28.2764C45.9443 33.5741 49.9706 37.4945 55.4096 37.4945ZM55.4096 32.7618C52.8313 32.7618 50.9595 30.7487 50.9595 28.2764C50.9595 25.8041 52.8313 23.7557 55.4096 23.7557C57.9878 23.7557 59.8596 25.8041 59.8596 28.2764C59.8596 30.7487 57.9878 32.7618 55.4096 32.7618ZM70.0263 16.904C71.7216 16.904 73.099 15.5265 73.099 13.796C73.099 12.1007 71.7216 10.688 70.0263 10.688C68.331 10.688 66.9183 12.1007 66.9183 13.796C66.9183 15.5265 68.331 16.904 70.0263 16.904ZM67.5187 19.5175V37H72.5339V19.5175H67.5187ZM81.0379 37V27.1462C81.0379 25.0625 82.2387 23.791 84.2165 23.791C85.1348 23.791 86.159 24.0382 87.0066 24.5327V19.6588C86.1237 19.2703 84.8875 19.0584 83.7574 19.0584C78.5656 19.0584 76.0227 22.4842 76.0227 26.9696V37H81.0379ZM96.6435 37.4945C102.118 37.4945 106.144 33.5741 106.144 28.2764V11.465H101.129L101.094 20.683C99.8222 19.6588 98.1269 19.023 96.361 19.023C90.922 19.023 87.1783 22.8374 87.1783 28.2764C87.1783 33.3269 91.2752 37.4945 96.6435 37.4945ZM96.6435 32.7618C94.0653 32.7618 92.1934 30.7487 92.1934 28.2764C92.1934 25.8041 94.0653 23.7557 96.6435 23.7557C99.2218 23.7557 101.129 25.8041 101.129 28.2764C101.129 30.7487 99.2218 32.7618 96.6435 32.7618Z" fill="white"/>
</svg>
