<svg width="122" height="73" viewBox="0 0 122 73" fill="none" xmlns="http://www.w3.org/2000/svg">
<path fill-rule="evenodd" clip-rule="evenodd" d="M36.6237 36.4097C36.6721 27.2975 44.0718 19.9251 53.1944 19.9209C51.9315 19.0148 50.5616 18.2505 49.1079 17.6484C44.9581 15.9295 40.357 15.6279 36.0183 16.7904C31.6796 17.953 27.8457 20.5147 25.1113 24.0783C22.3769 27.6418 20.8947 32.0081 20.8947 36.4998C20.8947 40.9916 22.3769 45.3579 25.1113 48.9214C27.8457 52.485 31.6796 55.0467 36.0183 56.2093C40.357 57.3718 44.9581 57.0702 49.1079 55.3513C50.5617 54.7491 51.9317 53.9848 53.1947 53.0786C47.7884 53.0762 42.9871 50.486 39.9624 46.4795C33.4106 46.7217 27.6963 46.2852 27.6963 43.3014C27.6963 40.8401 31.5845 38.5342 36.6237 36.4097Z" fill="#344054"/>
<path d="M69.2373 50.6723C74.5109 50.6723 78.4746 46.6051 78.4746 41.6762C78.4746 36.3682 74.8211 32.6457 69.5131 32.6457C67.7897 32.6457 66.1697 33.2661 64.8944 34.2312V25.2696H60V41.6762C60 46.8464 63.9293 50.6723 69.2373 50.6723ZM69.2373 46.0536C66.7212 46.0536 64.8944 44.0889 64.8944 41.6762C64.8944 39.2635 66.7212 37.2644 69.2373 37.2644C71.7534 37.2644 73.5802 39.2635 73.5802 41.6762C73.5802 44.0889 71.7534 46.0536 69.2373 46.0536Z" fill="#344054"/>
<path d="M83.502 30.5777C85.1565 30.5777 86.5007 29.2334 86.5007 27.5445C86.5007 25.8901 85.1565 24.5114 83.502 24.5114C81.8476 24.5114 80.4689 25.8901 80.4689 27.5445C80.4689 29.2334 81.8476 30.5777 83.502 30.5777ZM81.0548 33.1283V50.1897H85.9492V33.1283H81.0548Z" fill="#344054"/>
<path d="M94.2484 50.1897V40.5732C94.2484 38.5397 95.4203 37.2988 97.3505 37.2988C98.2466 37.2988 99.2462 37.5401 100.073 38.0226V33.2661C99.2117 32.887 98.0054 32.6802 96.9024 32.6802C91.8357 32.6802 89.354 36.0235 89.354 40.4009V50.1897H94.2484Z" fill="#344054"/>
<path d="M109.478 50.6723C114.821 50.6723 118.75 46.8464 118.75 41.6762V25.2696H113.856L113.821 34.2657C112.58 33.2661 110.926 32.6457 109.202 32.6457C103.894 32.6457 100.241 36.3682 100.241 41.6762C100.241 46.6051 104.239 50.6723 109.478 50.6723ZM109.478 46.0536C106.962 46.0536 105.135 44.0889 105.135 41.6762C105.135 39.2635 106.962 37.2644 109.478 37.2644C111.994 37.2644 113.856 39.2635 113.856 41.6762C113.856 44.0889 111.994 46.0536 109.478 46.0536Z" fill="#344054"/>
</svg>
