<svg xmlns="http://www.w3.org/2000/svg" viewBox="0 0 64 64"><circle cx="32" cy="53" r="8" fill="#f3ac3c"/><circle cx="32" cy="11" r="8" fill="#f6cc4f"/><polygon fill="#8e95a3" points="21.98 37 22 44 16 49 13 49 13 43.13 18 40 18 37 21.98 37"/><path fill="#5bcbfa" d="M24.94,24H17V17A8,8,0,0,1,24.94,24Z"/><path fill="#f09898" d="M27,24v9l-3,4H18v3l-5,3.13L10,45H7V36H3V33l4-4V24a8,8,0,0,1,8-8h2v8Z"/><polygon fill="#8e95a3" points="42.02 37 42 44 48 49 51 49 51 43.13 46 40 46 37 42.02 37"/><path fill="#5bcbfa" d="M39.06,24H47V17A8,8,0,0,0,39.06,24Z"/><path fill="#f09898" d="M37,24v9l3,4h6v3l5,3.13L54,45h3V36h4V33l-4-4V24a8,8,0,0,0-8-8H47v8Z"/><path fill="#ef8746" d="M32.5 13h-1a.5.5 0 0 1-.5-.5H29a2.5 2.5 0 0 0 2 2.449V16h2V14.949A2.5 2.5 0 0 0 32.5 10h-1a.5.5 0 0 1 0-1h1a.5.5 0 0 1 .5.5h2a2.5 2.5 0 0 0-2-2.449V6H31V7.051A2.5 2.5 0 0 0 31.5 12h1a.5.5 0 0 1 0 1zM31.5 51h1a.5.5 0 0 1 .5.5h2a2.5 2.5 0 0 0-2-2.449V48H31v1.051A2.5 2.5 0 0 0 31.5 54h1a.5.5 0 0 1 0 1h-1a.5.5 0 0 1-.5-.5H29a2.5 2.5 0 0 0 2 2.449V58h2V56.949A2.5 2.5 0 0 0 32.5 52h-1a.5.5 0 0 1 0-1z"/><path fill="#5bcbfa" d="M15 9h4V7H14a1 1 0 0 0-1 1v5h2zM49 13h2V8a1 1 0 0 0-1-1H45V9h4zM15 52H13v5a1 1 0 0 0 1 1h5V56H15zM49 56H45v2h5a1 1 0 0 0 1-1V52H49z"/></svg>